# xmcd CD database file
#
# Track frame offsets:
#	150
#	24946
#	50215
#	71075
#	92042
#	124313
#	150121
#	180092
#	210887
#	243727
#	289685
#	325102
#
# Disc length: 4499 seconds
#
# Revision: 0
# Processed by: cddbd v1.5.2PL0 Copyright (c) Steve Scherf et al.
# Submitted via: CDex 1.51
#
DISCID=9b11910c
DTITLE=St Germain - From Detroit to St Germain
DYEAR=2004
DGENRE=Jazz
TTITLE0=The Black Man
TTITLE1=Alabama Blues
TTITLE2=Walk So Lonely
TTITLE3=Jack On The Groove
TTITLE4=Prelusion
TTITLE5=French
TTITLE6=How Do You Plead?
TTITLE7=Move
TTITLE8=Deep In It
TTITLE9=Soul Salsa Soul
TTITLE10=My Mama Said
TTITLE11=Dub Experience
EXTD=YEAR: 2004
EXTT0=
EXTT1=
EXTT2=
EXTT3=
EXTT4=
EXTT5=
EXTT6=
EXTT7=
EXTT8=
EXTT9=
EXTT10=
EXTT11=
PLAYORDER=
